<svg xmlns="http://www.w3.org/2000/svg" width="61.609" height="61.658" viewBox="0 0 61.609 61.658">
  <path id="Path_273" data-name="Path 273" d="M61.017,7.186a24.808,24.808,0,0,0-2.149-4.892.921.921,0,0,0-.975-.411A24.8,24.8,0,0,0,52.887,3.75c-3.55,1.773-6.03,4.139-7.173,6.842a13.253,13.253,0,0,0-.413,8.044,25.614,25.614,0,0,0-4.816-4.191A37.308,37.308,0,0,0,36.3,8.029a.9.9,0,0,0-1.4,1.139,36.166,36.166,0,0,1,3.333,4.9L30,12.467,22.186,1.8a12.743,12.743,0,0,1,2.279.233,15.6,15.6,0,0,1,7.056,3.637A.9.9,0,0,0,32.692,4.3,17.376,17.376,0,0,0,24.812.264c-4.138-.81-8.965.253-13.96,3.076A36.062,36.062,0,0,0,4.536,7.851a.956.956,0,0,0-.107,1.24A36.854,36.854,0,0,0,8.48,15.45a28.244,28.244,0,0,0,4.27,4.389q-.631.529-1.226,1.109a20.882,20.882,0,0,0,6.755,34.274.9.9,0,0,0,.679-1.674A19.069,19.069,0,0,1,15.051,51.4a10.177,10.177,0,0,0-1.534-7.124c-.286-.446.57-2.2,1.081-3.244a16.934,16.934,0,0,0,1.327-3.242,2.471,2.471,0,0,0-.879-2.708A6.666,6.666,0,0,0,12.9,34.13a4.62,4.62,0,0,1-1.18-.462,12.041,12.041,0,0,1-1.529-2.489,15.442,15.442,0,0,0-1.651-2.713,19.207,19.207,0,0,1,5.7-7.512,15.8,15.8,0,0,0,7.611,2.828c-3.192,2.473-4.225,5.632-2.749,8.666,1.724,3.543,5.271,2.977,8.4,2.478.542-.087,1.1-.176,1.639-.243.2-.025.262.03.3.065.685.61.665,3.521.65,5.648-.02,2.941-.039,5.719,1.057,7.145a2.757,2.757,0,0,0,2.268,1.1,4.553,4.553,0,0,0,1.783-.4c2.724-1.167,5.556-4.678,5.124-7.456-.377-2.429-.627-4.034-.038-5.327.545-1.2,1.861-2.305,4.453-3.72a19.073,19.073,0,0,1-20.727,23.09.9.9,0,0,0-.2,1.8,21,21,0,0,0,16.906-5.827,20.868,20.868,0,0,0-3.213-32.412c1.193-.851,2.082-1.587,2.575-2.014a23.982,23.982,0,1,1-37.619,15.6A.9.9,0,0,0,.686,31.67,25.78,25.78,0,0,0,21.923,61.307a26.137,26.137,0,0,0,4.256.35A25.8,25.8,0,0,0,49.772,25.581a26.014,26.014,0,0,0,4.165-1.64c3.55-1.773,6.03-4.139,7.172-6.842s1.111-6.132-.092-9.912ZM8.592,32.022a11.248,11.248,0,0,0,1.968,3.031,5.18,5.18,0,0,0,1.808.8c1.765.543,1.97.809,1.8,1.507a15.766,15.766,0,0,1-1.193,2.874c-.933,1.909-1.814,3.711-.979,5.013a8.591,8.591,0,0,1,1.367,4.793A19.251,19.251,0,0,1,7.8,30.565c.266.455.545.984.795,1.457Zm43.7-17.75L49.726,8.051a16.9,16.9,0,0,1,3.933-2.666,24.11,24.11,0,0,1,2.854-1.2Zm5.885-9.388a24.228,24.228,0,0,1,1.13,2.888,17.27,17.27,0,0,1,.818,4.355L54.11,14.608ZM47.378,11.3a8.6,8.6,0,0,1,1.009-1.753l2.922,7.081-2.622,6.27a23.981,23.981,0,0,1-1.17-2.975c-.739-2.335-1.362-5.727-.138-8.623Zm5.787,11.01a24,24,0,0,1-2.764,1.17l2.721-6.506,6.927-2.858a8.713,8.713,0,0,1-.6,2.283C58.222,19.291,55.355,21.208,53.165,22.306ZM20.6,21.792c-.319-.062-.634-.139-.945-.226l10-7.328,8.231,1.6c-3,2.363-10.3,7.318-17.284,5.949ZM11.459,16.14a35.166,35.166,0,0,1-4.6-6.346l10.475,2.042Zm1.85-12.051,4.383,5.978L7.149,8.012a35.608,35.608,0,0,1,6.16-3.923Zm7,6.488L14.991,3.329a20.317,20.317,0,0,1,5.048-1.4l7.35,10.025Zm-.562,1.731,7.492,1.46-9.615,7.048a18.688,18.688,0,0,1-4.873-3.379Zm24.51,17.639c-3.256,1.735-4.851,3.1-5.607,4.76-.812,1.785-.515,3.7-.1,6.352.243,1.564-1.615,4.475-4.05,5.518-.9.386-1.543.34-1.908-.136-.718-.934-.7-3.761-.683-6.032.021-3.142.04-5.856-1.256-7.01a2.129,2.129,0,0,0-1.725-.509c-.568.071-1.144.163-1.7.251-3.32.529-5.41.741-6.492-1.484-1.754-3.6,1.8-6.274,3.4-7.254a5.722,5.722,0,0,0,.913-.7,26.262,26.262,0,0,0,10.829-4.22,19.173,19.173,0,0,1,8.379,10.459Zm0,0" transform="translate(-0.335 0)" fill="#4baf47"/>
</svg>
